HIERARCHY
ROOT Hips
{
	OFFSET -14.64140 90.27770 -84.91600
	CHANNELS 6 Xposition Yposition Zposition Zrotation Xrotation Yrotation
	JOINT Spine
	{
		OFFSET 0.00000 13.20850 -1.60436
		CHANNELS 3 Zrotation Xrotation Yrotation
		JOINT Spine1
		{
			OFFSET 0.00000 8.61716 0.00000
			CHANNELS 3 Zrotation Xrotation Yrotation
			JOINT Spine2
			{
				OFFSET 0.00000 8.61717 0.00000
				CHANNELS 3 Zrotation Xrotation Yrotation
				JOINT Spine3
				{
					OFFSET 0.00000 8.61717 0.00000
					CHANNELS 3 Zrotation Xrotation Yrotation
					JOINT Neck
					{
						OFFSET 0.00000 11.07920 1.10792
						CHANNELS 3 Zrotation Xrotation Yrotation
						JOINT Neck1
						{
							OFFSET 0.00000 7.08032 0.00000
							CHANNELS 3 Zrotation Xrotation Yrotation
							JOINT Head
							{
								OFFSET 0.00000 7.08031 0.00000
								CHANNELS 3 Zrotation Xrotation Yrotation
								End site
								{
									OFFSET 0.00000 0.00000 0.00000
								}
							}
						}
					}
					JOINT RightShoulder
					{
						OFFSET -0.01000 7.91373 5.19711
						CHANNELS 3 Zrotation Xrotation Yrotation
						JOINT RightArm
						{
							OFFSET -18.41580 0.00000 0.00000
							CHANNELS 3 Zrotation Xrotation Yrotation
							JOINT RightForeArm
							{
								OFFSET -29.11090 0.00000 0.00000
								CHANNELS 3 Zrotation Xrotation Yrotation
								JOINT RightHand
								{
									OFFSET -24.65040 0.00000 0.00000
									CHANNELS 3 Zrotation Xrotation Yrotation
									JOINT RightHandThumb1
									{
										OFFSET -5.35114 -0.85590 3.97906
										CHANNELS 3 Zrotation Xrotation Yrotation
										JOINT RightHandThumb2
										{
											OFFSET -4.52789 0.00000 0.00000
											CHANNELS 3 Zrotation Xrotation Yrotation
											JOINT RightHandThumb3
											{
												OFFSET -2.46976 0.00000 0.00000
												CHANNELS 3 Zrotation Xrotation Yrotation
												End site
												{
													OFFSET 0.00000 0.00000 0.00000
												}
											}
										}
									}
									JOINT RightHandIndex1
									{
										OFFSET -14.26970 0.00000 2.88139
										CHANNELS 3 Zrotation Xrotation Yrotation
										JOINT RightHandIndex2
										{
											OFFSET -5.48836 0.00000 0.00000
											CHANNELS 3 Zrotation Xrotation Yrotation
											JOINT RightHandIndex3
											{
												OFFSET -3.01859 0.00000 0.00000
												CHANNELS 3 Zrotation Xrotation Yrotation
												End site
												{
													OFFSET 0.00000 0.00000 0.00000
												}
											}
										}
									}
									JOINT RightHandMiddle1
									{
										OFFSET -14.26970 0.00000 -0.09147
										CHANNELS 3 Zrotation Xrotation Yrotation
										JOINT RightHandMiddle2
										{
											OFFSET -6.17441 0.00000 0.00000
											CHANNELS 3 Zrotation Xrotation Yrotation
											JOINT RightHandMiddle3
											{
												OFFSET -3.56743 0.00000 0.00000
												CHANNELS 3 Zrotation Xrotation Yrotation
												End site
												{
													OFFSET 0.00000 0.00000 0.00000
												}
											}
										}
									}
									JOINT RightHandRing1
									{
										OFFSET -12.69180 0.00000 -3.06433
										CHANNELS 3 Zrotation Xrotation Yrotation
										JOINT RightHandRing2
										{
											OFFSET -5.62556 0.00000 0.00000
											CHANNELS 3 Zrotation Xrotation Yrotation
											JOINT RightHandRing3
											{
												OFFSET -3.56744 0.00000 0.00000
												CHANNELS 3 Zrotation Xrotation Yrotation
												End site
												{
													OFFSET 0.00000 0.00000 0.00000
												}
											}
										}
									}
									JOINT RightHandPinky1
									{
										OFFSET -11.11390 0.00000 -6.03719
										CHANNELS 3 Zrotation Xrotation Yrotation
										JOINT RightHandPinky2
										{
											OFFSET -4.52789 0.00000 0.00000
											CHANNELS 3 Zrotation Xrotation Yrotation
											JOINT RightHandPinky3
											{
												OFFSET -2.46976 0.00000 0.00000
												CHANNELS 3 Zrotation Xrotation Yrotation
												End site
												{
													OFFSET 0.00000 0.00000 0.00000
												}
											}
										}
									}
								}
							}
						}
					}
					JOINT LeftShoulder
					{
						OFFSET 0.01000 7.91373 5.19711
						CHANNELS 3 Zrotation Xrotation Yrotation
						JOINT LeftArm
						{
							OFFSET 18.41580 0.00000 0.00000
							CHANNELS 3 Zrotation Xrotation Yrotation
							JOINT LeftForeArm
							{
								OFFSET 29.11090 0.00000 0.00000
								CHANNELS 3 Zrotation Xrotation Yrotation
								JOINT LeftHand
								{
									OFFSET 24.65040 0.00000 0.00000
									CHANNELS 3 Zrotation Xrotation Yrotation
									JOINT LeftHandThumb1
									{
										OFFSET 5.35114 -0.85590 3.97906
										CHANNELS 3 Zrotation Xrotation Yrotation
										JOINT LeftHandThumb2
										{
											OFFSET 4.52789 0.00000 0.00000
											CHANNELS 3 Zrotation Xrotation Yrotation
											JOINT LeftHandThumb3
											{
												OFFSET 2.46977 0.00000 0.00000
												CHANNELS 3 Zrotation Xrotation Yrotation
												End site
												{
													OFFSET 0.00000 0.00000 0.00000
												}
											}
										}
									}
									JOINT LeftHandIndex1
									{
										OFFSET 14.26970 0.00000 2.88139
										CHANNELS 3 Zrotation Xrotation Yrotation
										JOINT LeftHandIndex2
										{
											OFFSET 5.48836 0.00000 0.00000
											CHANNELS 3 Zrotation Xrotation Yrotation
											JOINT LeftHandIndex3
											{
												OFFSET 3.01859 0.00000 0.00000
												CHANNELS 3 Zrotation Xrotation Yrotation
												End site
												{
													OFFSET 0.00000 0.00000 0.00000
												}
											}
										}
									}
									JOINT LeftHandMiddle1
									{
										OFFSET 14.26970 0.00000 -0.09147
										CHANNELS 3 Zrotation Xrotation Yrotation
										JOINT LeftHandMiddle2
										{
											OFFSET 6.17440 0.00000 0.00000
											CHANNELS 3 Zrotation Xrotation Yrotation
											JOINT LeftHandMiddle3
											{
												OFFSET 3.56744 0.00000 0.00000
												CHANNELS 3 Zrotation Xrotation Yrotation
												End site
												{
													OFFSET 0.00000 0.00000 0.00000
												}
											}
										}
									}
									JOINT LeftHandRing1
									{
										OFFSET 12.69180 0.00000 -3.06433
										CHANNELS 3 Zrotation Xrotation Yrotation
										JOINT LeftHandRing2
										{
											OFFSET 5.62556 0.00000 0.00000
											CHANNELS 3 Zrotation Xrotation Yrotation
											JOINT LeftHandRing3
											{
												OFFSET 3.56744 0.00000 0.00000
												CHANNELS 3 Zrotation Xrotation Yrotation
												End site
												{
													OFFSET 0.00000 0.00000 0.00000
												}
											}
										}
									}
									JOINT LeftHandPinky1
									{
										OFFSET 11.11390 0.00000 -6.03719
										CHANNELS 3 Zrotation Xrotation Yrotation
										JOINT LeftHandPinky2
										{
											OFFSET 4.52789 0.00000 0.00000
											CHANNELS 3 Zrotation Xrotation Yrotation
											JOINT LeftHandPinky3
											{
												OFFSET 2.46976 0.00000 0.00000
												CHANNELS 3 Zrotation Xrotation Yrotation
												End site
												{
													OFFSET 0.00000 0.00000 0.00000
												}
											}
										}
									}
								}
							}
						}
					}
					JOINT pCube4
					{
						OFFSET 0.00000 10.91090 1.10792
						CHANNELS 3 Zrotation Xrotation Yrotation
						End site
						{
							OFFSET 0.00000 0.00000 0.00000
						}
					}
				}
			}
		}
	}
	JOINT RightUpLeg
	{
		OFFSET -9.98441 0.00000 0.00000
		CHANNELS 3 Zrotation Xrotation Yrotation
		JOINT RightLeg
		{
			OFFSET 0.00000 -42.11790 0.00000
			CHANNELS 3 Zrotation Xrotation Yrotation
			JOINT RightFoot
			{
				OFFSET 0.00000 -45.00020 -0.00001
				CHANNELS 3 Zrotation Xrotation Yrotation
				JOINT RightForeFoot
				{
					OFFSET 0.00000 -3.74820 0.00000
					CHANNELS 3 Zrotation Xrotation Yrotation
					JOINT RightToeBase
					{
						OFFSET 0.00000 0.06325 14.43120
						CHANNELS 3 Zrotation Xrotation Yrotation
						End site
						{
							OFFSET 0.00000 0.00000 0.00000
						}
					}
				}
			}
		}
	}
	JOINT LeftUpLeg
	{
		OFFSET 9.98441 0.00000 0.00000
		CHANNELS 3 Zrotation Xrotation Yrotation
		JOINT LeftLeg
		{
			OFFSET 0.00000 -42.11800 0.00000
			CHANNELS 3 Zrotation Xrotation Yrotation
			JOINT LeftFoot
			{
				OFFSET 0.00000 -45.00070 0.00000
				CHANNELS 3 Zrotation Xrotation Yrotation
				JOINT LeftForeFoot
				{
					OFFSET 0.00000 -3.74824 0.00000
					CHANNELS 3 Zrotation Xrotation Yrotation
					JOINT LeftToeBase
					{
						OFFSET 0.00000 0.06325 14.43110
						CHANNELS 3 Zrotation Xrotation Yrotation
						End site
						{
							OFFSET 0.00000 0.00000 0.00000
						}
					}
				}
			}
		}
	}
}
MOTION
Frames: 4
Frame Time: 0.050000
-0.010234162413691301 0.037276246379750314 0.02091377633487011 0.01796838867745941 0.03054999976248677 -0.039149628743286195 4.604286739466519 3.147523606115492 -2.089157226187511 -0.8192096118647342 3.5436555903901614 0.3834469295789673 -0.6618531405291016 -1.0680259870273938 -0.17174115179006938 -0.376644471894994 -0.25686149737478964 -0.4643738820437462 -0.1594323746529429 12.339218013830857 -0.9689318233960068 0.3132553778279264 -0.493438883205779 -1.3935617488470355 0.6904999061275026 -16.789902343348786 -0.12217916079928029 -9.326800849200774 3.144015150900292 -18.463789281548934 77.45188654593832 5.405578070035118 -0.13195446191426768 -17.65643727920354 -4.449324023246438 59.28455108074566 22.3931807580054 -0.2768943805520862 -7.207307723540878 4.529923543376047 -0.10330674710339403 -1.6138614830995939 -0.03366241259986233 -0.02653226400985107 -56.23444006194379 0.019435631767899635 -0.006058358060977899 -56.24086317137327 -38.76654070124809 -0.026383031136994296 -0.030361364727680428 0.013488264375379073 0.026346243564366448 -0.02239327583144927 -0.019271032858070438 0.03649260683246111 -0.004009254403010385 -36.66748351050048 0.04125994594323621 -0.025340767424994366 0.014747488014958916 -0.021369059019499318 -0.02085342341049451 -0.02350298258654078 0.03884637022072674 -0.01877459484890205 -19.80216935059729 -0.011491458537231276 0.03889783249305954 0.047716024228200024 -0.010948620396456001 0.038706684391939236 0.03533453075173223 -0.0012837714443520068 -0.010920326546951362 24.0788640485903 -0.024453607173799078 0.013619993557790363 28.868200593698408 0.015867217339469032 -0.010230560598796326 28.89378041702604 -0.00414064115006088 0.01131040499214754 10.14022601250705 2.4351982555124474 15.300906831702193 -72.69365218694621 19.90146548541327 -13.891625233012373 -40.61836060936947 6.717450271026764 -90.5328082741955 -21.773158757884165 -9.713126812915581 6.573382091509628 -0.47972761042734136 0.03570343227468047 -8.163637032893465 -0.03587030835947018 0.008872644539494687 44.59337241941646 -0.0049215061887686535 -0.021153330942281483 44.5390208323403 12.453919456034232 -0.012278569888463767 -0.019353671161102776 0.03256925656401021 0.011059680374726726 0.039631141581378634 0.016917800243211073 -0.02894536663871249 0.008244168594181065 11.11495505912277 0.016879682284657176 0.023901609988145514 -0.013203889342295463 -0.011470465092745196 0.03834917056331704 -0.02137967499317302 -0.01906961887663342 -0.04251529680756088 4.773412834102966 0.01318621952880034 0.03209465340564799 -0.023535049583011336 0.048261494657347526 0.002990218426712558 0.029777123224682747 0.02032566971883251 0.01807061314898003 -5.587010599402755 0.03935713435632633 0.042261910889228205 -6.7039303248035065 -0.0317978679783276 -0.006823720979941253 -6.744311473659299 0.0300725752672074 -0.004962208195402863 0.002496923189708699 0.042329429025541446 0.012279441141614804 8.008069968799887 3.500632300459822 -19.25644827590713 -0.004586875448145137 10.367730545290089 0.052058745132742626 -5.649443902985836 -15.679261492332493 3.1735669041829264 -0.015376186649144202 0.025421024408401844 -0.006939232165822214 0.0030335104359503345 4.738828307875968 -0.034581180246563155 12.443477619457319 -8.264176400026042 6.892042596890756 -0.010609457625009448 46.35027215097199 0.011355668973801511 -4.350926147550073 -14.764197100559986 -3.8399995573892918 -0.046406093934691875 0.021077452869304885 0.04181150781192022 0.011763211590168436 -10.752696446944174 -0.008680793782520006 
-0.03855144554823592 -0.04525085154784957 -0.012350506507384352 -0.02264687255595309 0.0027150422257051377 0.02346788435107076 4.416712225193669 3.1383623239651044 -2.147056304245025 -0.7332618146217712 3.470219708021088 0.4139919743908388 -0.684992340366996 -1.0842966653408543 -0.07525715196533077 -0.36558577865496555 -0.2392704259930913 -0.45211451957419363 -0.09327230621293649 12.207007995328334 -0.9956660379004231 0.3202256839907094 -0.4940176663262574 -1.6002610483786723 0.7614399331912011 -16.846851608718175 -0.14662164712178255 -9.320129465049744 3.202027712670521 -18.486874929373613 77.76237331706032 5.164813608727557 -0.020497690604706714 -18.070399571483772 -4.7084864990933415 59.70067246808436 22.512314348054343 -0.2422140376456946 -7.3538343901813565 4.512933292964018 -0.10473409495306306 -1.548223602890733 0.01156551182055622 -0.04755664671262419 -56.25344307409978 0.013492710956446755 -0.024913353115927964 -56.2413041141102 -38.77943129343345 0.019172508000703727 0.0076862376025133225 0.001430550101829714 -0.009129321115746925 -0.04439338107728596 0.031691192067365155 -0.013587838896746425 0.015273261181315235 -36.67140384310758 -0.042791238899912674 0.022833614779187994 0.040413550243036944 0.03536328067596026 -0.03136389149817701 -0.007668628437186968 0.01218736226936683 -0.030439929093077255 -19.74209829932374 -0.029162197862195812 -0.04215015322346025 -0.027353605771778793 -0.0436688263173084 0.035825882671063305 -0.026598028215082576 0.018445816704501485 0.04695221529173167 24.061527150344716 -0.04396385537192837 -0.03505305986641789 28.870837901610535 -0.04036162164455031 0.049678924892804274 28.884464224053726 0.030764325277354617 0.015228669595483833 9.979573057080314 2.3343401563600525 15.303796561848557 -73.60663952454904 19.6198662722379 -12.59524251453923 -43.71879324865168 6.798712554087539 -91.0148404119058 -21.68752011624189 -9.89483782015076 6.675694894551706 -0.4792003849826219 0.09080037959136651 -8.08531362251685 -0.015350303215970088 0.004976463686021443 44.524428751874844 0.021565575538123768 -0.007667761519926145 44.53929144202154 12.440099525473702 0.019535560267519198 -0.0223296701625187 -0.019983326240649947 0.019777643589028275 -0.0104868409035558 -0.024654380183771363 -0.01848883818431864 0.046879661370401095 11.112426924667652 0.005388928544628761 -0.03800233625925929 0.016926499322766377 -0.037628425907585666 -0.015504133500959597 0.008348096911737523 -0.0006908597740374118 0.006162889487817709 4.790037425720496 0.007672991932310259 0.03865660233327405 -0.012430541102855299 0.026213813910650065 0.037082095351892275 0.049477778544694394 0.008153724645482327 -0.0025555724970115087 -5.59295749981842 -0.004969374321467144 0.024704116010392355 -6.722531820899061 -0.03675869382101879 0.045805634164151315 -6.768487448325674 0.030547250242031813 0.03888233860284039 -0.025626379009289033 0.024914004322101408 -0.02975353555880657 8.0815349430569 3.4467152799572434 -19.231315542637788 0.006915737095142102 10.409234908850618 0.051136761561090066 -5.591073017223815 -15.70631528857963 3.221601347296526 -0.03278554409426513 -0.01486938758191464 -0.047885163011317636 -0.012137600929966248 4.679355122435287 -0.03450502120286809 12.421833774107347 -8.282531630139973 6.9245720787664755 0.013662012684905822 46.35178644400047 0.007472395945027681 -4.321487304844263 -14.717444081839897 -3.815130937138541 0.042961041953589164 -0.028488165210394413 0.011325334165500908 0.0380451511677827 -10.777992884971713 -0.016622667974628677 
0.04113986130437378 -0.024408554626597075 -0.005170930592365782 -0.044342713862409414 -0.03414306034489808 0.047190925583192704 4.268775622431784 2.9694115228748776 -2.0928694602668094 -0.754045715068068 3.494375090616996 0.3396355208942636 -0.6671869753029468 -1.1331402316308876 0.023053986719440554 -0.4150690709513274 -0.32406557668269165 -0.47635718366159446 -0.09789212524989473 12.19908591848003 -0.9805957871492338 0.36380404395231036 -0.493101967352559 -1.532927156301971 0.7670088922962245 -16.78077117034236 -0.198984171304101 -9.202539758069477 3.146579821706964 -18.35917633363216 78.34999914325397 4.149986630248929 0.11804591733739274 -16.792095623697918 -3.895489046829173 58.45569573420727 22.16191457178605 -0.20444550576537016 -6.943449111114688 4.561255062223421 -0.11565774391560107 -1.5876583117900096 0.025697164198790846 -0.03405846105574166 -56.23748753169205 0.028504495508995913 -0.04407344346053269 -56.22430408997483 -38.77363197332162 -0.018871048159522986 0.025747411412345187 -0.002416827672725094 0.002712838918049375 0.014589655501007806 0.04813578526924337 -0.03275116465909676 0.02105295090453062 -36.665770732793646 0.041121608329529255 0.025302220158935376 -0.007259195266832009 -0.02382593074660928 0.023283113001926783 -0.016233384378217034 -0.032293083589584694 0.04460367357315833 -19.791514326771384 -0.010387888028534235 0.02065982922279635 -0.016621989353308816 0.014225359551730144 -0.007174951410728836 0.006174350367427469 -0.0003605883479225937 -0.005797136831589358 24.048542591486747 0.0008693672357447642 0.0432563082447478 28.874408946123722 -0.02109351897548297 -0.032057338589425936 28.883352355196426 0.006956536677702775 -0.02586182985403056 9.841252392286641 2.369637296015274 15.212589540804734 -74.19287319052431 18.863467467309682 -12.085203036544042 -46.51753822074345 6.609039444040844 -91.41916312361668 -21.27328884683898 -9.50507671069994 6.383960579655766 -0.43329238883479704 0.04403314374224779 -8.13822033298348 0.003311877119083132 -0.009527408997485507 44.57623516744105 -0.00883396208025908 -0.02616505078314925 44.56357597929177 12.474262696638208 0.01938078980635101 0.010590849586423014 -0.025244132754687225 0.03736446115972979 0.009532488286333912 0.038795384781468975 0.0005648246491505286 -0.020570753143411617 11.128908470836327 -0.0160750933993851 -0.003545007767788752 0.006301951307919889 0.016887565105066733 -0.03864990821951206 0.0006435037698206186 0.009090200099201999 -0.045613077030195036 4.7768680661193965 -0.03905533565061718 0.005041270143998655 0.008399052498974989 -0.03633976840449345 -0.0015683685137246543 -8.325962046400007e-05 0.01663125765181255 -0.007409301739668784 -5.650223719347955 -0.02376018355729969 0.02874409570731014 -6.6932690564833495 0.006172223986901372 -0.043878420038122985 -6.747058116012076 -0.04814165468713894 0.018141719660363046 0.04593488814134957 0.002220947949410401 0.013893936731455166 8.042364329456147 3.4496592991490407 -19.237537999199645 -0.026377378500908998 10.441180376542901 0.04970402551386641 -5.580997772598483 -15.621023418446512 3.15138974757187 0.029113946877057657 -0.030102262578428192 -0.004075794799275668 0.010255179617206955 4.656234271252251 -0.0021407642872430755 12.4474426137761 -8.195027307969866 6.902988997605763 0.016325744289801176 46.3748801213654 -0.037873991397060776 -4.329239786745413 -14.713911614632622 -3.800112016385246 0.0023602581394917103 0.003170712747790137 0.011919074287626622 -0.031134877635234367 -10.784155891125328 0.029995184590578233 
-0.028295924296913536 -0.024587189799182473 -0.016804650763599015 0.03865019230544517 0.011513292861377108 0.011344707590487531 4.232332825274188 2.875308796214376 -2.1217834775642492 -0.7852351950770213 3.5626180528685123 0.3939054749207968 -0.66011815014573 -1.1727483761541868 -0.0819769166424312 -0.4358221066870562 -0.3221073239716326 -0.43349714196058675 -0.17904190363085168 12.153271426551568 -0.8766139724323706 0.3105631533684941 -0.48431879244395537 -1.3233074070088056 0.6756039555132931 -16.77432431931913 -0.12156141872669589 -9.1284161667356 3.132559562844218 -18.27999050124435 79.122913222391 2.7849478408674258 0.2737113509673819 -14.573291092944507 -2.0515571383942266 55.94719501101881 21.34907218833375 -0.22561812802530617 -6.3326042698428235 4.490117199615785 -0.09499331875210294 -1.6285576536494006 -0.018642653272361406 0.02028000388941433 -56.23383511216975 0.023318231386661326 -0.03978033610759263 -56.24016345169838 -38.785827419115954 0.01811576279470544 0.04615488529047234 0.006779762331937811 0.024280977406608003 -0.0017508325864280215 0.019263490212104606 0.03996878648739529 0.018142504089831764 -36.717336976079466 0.0033413501074141465 0.007217203291416928 0.019879694829249856 0.03173452074898473 -0.04010895382516383 0.009098261353650605 0.017680324551518124 0.015174302708953712 -19.738078598662515 0.027232002320978776 0.04382699651263164 -0.02600631345330033 -0.020177134470888515 -0.045305168794520345 0.03995715212960248 0.03732011921996081 0.024782246233216815 24.007102223777235 0.04625869325806066 -0.03301617122400054 28.901326873240045 0.03898122447368274 -0.027114264388947235 28.859902228368565 0.015823478892633958 0.005732029335835143 9.832580552868139 2.307289809717208 15.176834957020475 -74.42150579313271 17.977992477890584 -12.459802573158571 -47.4885715532954 6.013979917261617 -91.53524874181623 -20.432944837820074 -9.176526521384806 5.8387186171054175 -0.4893905035601243 0.048509994088268074 -8.16248736668809 -0.038222966733048654 -0.009658982812955824 44.59684866078574 -0.01725793546274724 -0.0024363644527189304 44.5466366372413 12.48378809600777 0.020992769942700617 0.006537156430459868 -0.016478181436827947 0.007415070086641862 -0.002927208496110451 -0.02398769655585159 -0.015848963829140358 0.04031780262214965 11.086702875999078 -0.011644898790380998 -0.012266736229924894 -0.017304923215969867 0.016933191757753197 0.01896244330493507 0.009545529540133666 -0.03896880231119703 0.009330704591282792 4.7688285531755925 -0.002908270914027407 0.03399500235981134 -0.00469989256188282 0.016929225488458096 -0.013630616185733762 0.03904420730256615 -0.026650399728024653 0.006785499466488425 -5.592832242904632 0.02526817995266792 -0.001112296650821282 -6.736471492062582 0.025531954557206114 -0.01439103307784095 -6.699370167022618 0.005210910332874981 0.012302963686511906 0.007728004895690808 0.0031991528153791564 -0.034427254306626555 8.025074829565106 3.518513895730263 -19.22828563884802 0.017659214388218235 10.34870112683881 0.0498933478608273 -5.591495297667604 -15.655311524543558 3.169125083533315 -0.039965537506300906 -0.028999549937608532 -0.03551167072939662 0.03971654546021442 4.709065690309412 -0.023913740310831894 12.458203499999572 -8.206486385436662 6.865885549598072 -0.02359212556106475 46.420119139151524 -0.03709205839250876 -4.3342032898441785 -14.764236399225823 -3.828794811465956 -0.03410793461543774 0.049610773976663206 0.015332069622929408 0.013521009020235175 -10.770087860900741 0.007361838743122516 
